<svg width="26" height="26" viewBox="0 0 26 26" fill="none" xmlns="http://www.w3.org/2000/svg">
<path d="M20.4286 5.33928V19.0357C20.4284 19.1517 20.4716 19.2636 20.5498 19.3494C20.628 19.4351 20.7354 19.4885 20.8509 19.499C20.9665 19.5094 21.0818 19.4763 21.1741 19.406C21.2664 19.3357 21.3291 19.2334 21.3497 19.1193L21.3572 19.0357V6.49999H22.5179C22.9257 6.50001 23.3186 6.65337 23.6186 6.92963C23.9186 7.20588 24.1038 7.58484 24.1373 7.99128L24.1429 8.12499V19.2679C24.1429 20.0387 23.848 20.7803 23.3186 21.3406C22.7892 21.9009 22.0655 22.2374 21.2959 22.2811L21.125 22.2857H4.87503C4.10419 22.2858 3.36255 21.9908 2.80225 21.4614C2.24195 20.932 1.90546 20.2083 1.86182 19.4387L1.85718 19.2679V5.33928C1.85719 4.93146 2.01055 4.53856 2.28681 4.23856C2.56307 3.93856 2.94203 3.75341 3.34846 3.71985L3.48218 3.71428H18.8036C19.2114 3.71429 19.6043 3.86765 19.9043 4.14391C20.2043 4.42017 20.3895 4.79913 20.423 5.20556L20.4286 5.33928V19.0357V5.33928ZM9.05082 12.0751H6.73218C6.32436 12.0752 5.93145 12.2285 5.63146 12.5048C5.33146 12.781 5.14631 13.16 5.11275 13.5664L5.10718 13.7001V16.0179C5.10719 16.4257 5.26055 16.8186 5.53681 17.1186C5.81307 17.4186 6.19203 17.6037 6.59846 17.6373L6.73218 17.6429H9.05082C9.45879 17.6428 9.85182 17.4893 10.1518 17.2129C10.4519 16.9364 10.6369 16.5572 10.6702 16.1506L10.6749 16.0179V13.7001C10.6751 13.2922 10.5219 12.899 10.2456 12.5988C9.96929 12.2986 9.5902 12.1134 9.18361 12.0798L9.05082 12.0751ZM16.4822 16.25H13.2322L13.1375 16.2565C12.9708 16.2794 12.818 16.3619 12.7075 16.4888C12.5969 16.6156 12.536 16.7782 12.536 16.9464C12.536 17.1147 12.5969 17.2773 12.7075 17.4041C12.818 17.5309 12.9708 17.6134 13.1375 17.6364L13.2322 17.6429H16.4822L16.5769 17.6364C16.7436 17.6134 16.8963 17.5309 17.0069 17.4041C17.1175 17.2773 17.1784 17.1147 17.1784 16.9464C17.1784 16.7782 17.1175 16.6156 17.0069 16.4888C16.8963 16.3619 16.7436 16.2794 16.5769 16.2565L16.4822 16.25ZM6.73218 13.468H9.05082C9.10299 13.468 9.15364 13.4856 9.19457 13.518C9.23551 13.5503 9.26436 13.5955 9.27646 13.6463L9.28296 13.7001V16.0179C9.28288 16.0702 9.26513 16.1209 9.2326 16.1618C9.20008 16.2028 9.15467 16.2316 9.10375 16.2435L9.05082 16.25H6.73218C6.67988 16.2499 6.62914 16.2322 6.58818 16.1996C6.54723 16.1671 6.51846 16.1217 6.50653 16.0708L6.50003 16.0179V13.7001C6.49991 13.6477 6.51756 13.5967 6.55011 13.5556C6.58265 13.5144 6.62817 13.4855 6.67925 13.4736L6.73218 13.468H9.05082H6.73218ZM16.4822 12.0751H13.2322L13.1375 12.0807C12.9701 12.1029 12.8164 12.1851 12.7052 12.3121C12.5939 12.4391 12.5325 12.6022 12.5325 12.7711C12.5325 12.94 12.5939 13.1031 12.7052 13.2301C12.8164 13.3571 12.9701 13.4393 13.1375 13.4615L13.2322 13.468H16.4822L16.5769 13.4615C16.7443 13.4393 16.8979 13.3571 17.0092 13.2301C17.1205 13.1031 17.1818 12.94 17.1818 12.7711C17.1818 12.6022 17.1205 12.4391 17.0092 12.3121C16.8979 12.1851 16.7443 12.1029 16.5769 12.0807L16.4822 12.0751ZM16.4822 7.89007H5.80361L5.70889 7.89656C5.5422 7.9195 5.38945 8.00201 5.27888 8.12884C5.16831 8.25566 5.10739 8.41823 5.10739 8.58649C5.10739 8.75475 5.16831 8.91732 5.27888 9.04415C5.38945 9.17098 5.5422 9.25349 5.70889 9.27642L5.80361 9.28292H16.4822L16.5769 9.27642C16.7436 9.25349 16.8963 9.17098 17.0069 9.04415C17.1175 8.91732 17.1784 8.75475 17.1784 8.58649C17.1784 8.41823 17.1175 8.25566 17.0069 8.12884C16.8963 8.00201 16.7436 7.9195 16.5769 7.89656L16.4822 7.89007Z" fill="#FF991A"/>
</svg>
