<svg width="32" height="32" viewBox="0 0 32 32" fill="none" xmlns="http://www.w3.org/2000/svg">
<path fill-rule="evenodd" clip-rule="evenodd" d="M14.264 3.732C14.7474 3.31743 15.3632 3.08954 16 3.08954C16.6368 3.08954 17.2526 3.31743 17.736 3.732L26.184 10.972L29.5 13.6253C29.6368 13.7348 29.7506 13.8701 29.8351 14.0235C29.9195 14.1769 29.973 14.3455 29.9923 14.5196C30.0116 14.6937 29.9964 14.8698 29.9477 15.0381C29.8989 15.2063 29.8175 15.3632 29.708 15.5C29.5986 15.6367 29.4633 15.7506 29.3098 15.8351C29.1564 15.9195 28.9878 15.9729 28.8138 15.9923C28.6397 16.0116 28.4635 15.9964 28.2953 15.9476C28.1271 15.8989 27.9701 15.8174 27.8334 15.708L26.6667 14.7747V25.3333C26.6667 26.0406 26.3857 26.7189 25.8856 27.2189C25.3855 27.719 24.7073 28 24 28H18.6667V21.3333C18.6667 20.6261 18.3857 19.9478 17.8856 19.4477C17.3855 18.9476 16.7073 18.6667 16 18.6667C15.2928 18.6667 14.6145 18.9476 14.1144 19.4477C13.6143 19.9478 13.3334 20.6261 13.3334 21.3333V28H8.00002C7.29277 28 6.6145 27.719 6.1144 27.2189C5.6143 26.7189 5.33335 26.0406 5.33335 25.3333V14.7733L4.16669 15.7067C4.03086 15.8226 3.87313 15.9102 3.70284 15.964C3.53255 16.0178 3.35317 16.0369 3.17537 16.0201C2.99756 16.0033 2.82494 15.9509 2.66776 15.8661C2.51058 15.7813 2.37203 15.6658 2.26036 15.5264C2.14868 15.3871 2.06614 15.2267 2.01763 15.0548C1.96913 14.8829 1.95566 14.703 1.97801 14.5258C2.00037 14.3486 2.05809 14.1777 2.14776 14.0233C2.23744 13.8688 2.35722 13.7339 2.50002 13.6267L5.81602 10.9733L14.264 3.732Z" fill="#1F1F1F"/>
</svg>
